<svg xmlns="http://www.w3.org/2000/svg" xmlns:xlink="http://www.w3.org/1999/xlink" width="22" height="22" viewBox="0 0 22 22"><defs><path id="oanqa" d="M43.92 374.38v-2.07h.94v-.14-8.42c0-.1-.03-.15-.12-.18a2.33 2.33 0 0 1-1.57-2.17c0-.08.02-.17.06-.25l3.1-5.83a.53.53 0 0 0 .06-.24v-1.32-.14h14.86v1.48c0 .06.02.14.05.2l3.1 5.8c.12.22.09.43.05.64-.18.9-.7 1.52-1.56 1.84-.08.03-.1.07-.1.14v8.59h.93v2.07h-19.8zm3.67-11.91a2.4 2.4 0 0 1-2.03 1.24v8.6h10.17v-7.69h4.93v7.69h1.43v-8.6a2.4 2.4 0 0 1-2.03-1.24 2.37 2.37 0 0 1-4.16 0 2.32 2.32 0 0 1-2.08 1.23c-.92 0-1.6-.44-2.08-1.22a2.36 2.36 0 0 1-4.15-.01zM52.1 361h3.44l-.57-5.35h-2.3L52.1 361zm-.12-5.35h-.05l-2.16-.01c-.06 0-.08.03-.1.08l-.68 2.14-.82 2.57-.18.57h3.43l.56-5.35zm3.68 0l.57 5.35h3.41v-.02l-1.66-5.25c-.02-.07-.06-.1-.13-.1l-2.08.01h-.1zM44.08 361h3.1c.08 0 .1-.03.13-.1l.73-2.29.9-2.86.03-.11h-.05l-1.9-.01c-.07 0-.1.03-.13.08l-2.14 4.03-.67 1.26zm14.6-5.37v.07l1.66 5.21c.03.08.07.1.14.1h2.99l.1-.02-.08-.14-.84-1.57-1.9-3.57c-.03-.06-.07-.08-.14-.08h-1.94zM63.03 373H44.61v.7h18.43v-.7zm-3.07-.67v-7.02h-3.55v7.02h3.55zm-12.89-17.45h13.48v-.58H47.08v.58zm.97 6.82c.1.63.75 1.38 1.74 1.32.72-.04 1.5-.73 1.5-1.32h-3.24zm11.55 0h-3.25c.1.62.72 1.32 1.62 1.32.93 0 1.54-.72 1.63-1.32zm-4.16 0h-3.23c0 .62.79 1.29 1.52 1.32.93.05 1.61-.65 1.71-1.32zm-11.54 0c-.03.64.87 1.35 1.68 1.32.76-.02 1.6-.75 1.55-1.32H43.9zm19.85 0H60.5c0 .62.8 1.3 1.55 1.32 1 .04 1.62-.74 1.69-1.32zM47 364.62h7.28v6.5H47v-6.5zm6.6 4.39h-5.82c-.1 0-.12.03-.11.12v1.29h5.93v-1.41zm0-3.7h-5.92v.56h5.92v-.56zm-5.92 3.01h5.91v-.53h-5.91v.53zm0-1.22h5.92v-.53h-5.92v.53zm11.6 4.56H57.1v-5.67h2.19v5.67zM57.82 369c.19 0 .34-.15.34-.34a.34.34 0 1 0-.68 0c0 .18.15.34.34.34z"/></defs><g><g transform="translate(-43 -353)"><use xlink:href="#oanqa"/></g></g></svg>
