<svg xmlns="http://www.w3.org/2000/svg" xmlns:xlink="http://www.w3.org/1999/xlink" width="17" height="13" viewBox="0 0 17 13"><defs><path id="ojqba" d="M1272.66 610.21l-.2-3.64c-.03-.64-.08-1.27-.1-1.91-.02-.72.47-1.23 1.14-1.24.7 0 1.2.5 1.17 1.23l-.24 4.5-.06 1.06c.34 0 .66-.02.98 0 .14.02.32.08.37.18.06.1.01.3-.06.4-.58.73-1.17 1.45-1.77 2.16-.24.28-.5.29-.74.01-.6-.7-1.2-1.43-1.77-2.16-.08-.1-.13-.31-.08-.4.07-.1.26-.17.4-.18.3-.03.6 0 .96 0zm7.74 4.1v-1.23c0-.36.12-.48.48-.49h.35c.39.01.5.12.5.5v2.1c0 .39-.09.48-.47.48h-15.48c-.39 0-.48-.09-.48-.47v-2.13c0-.36.12-.47.49-.48h.35c.38.01.49.13.49.51v1.2h13.77z"/></defs><g><g transform="translate(-1265 -603)"><use fill="#fff" xlink:href="#ojqba"/></g></g></svg>